<svg version="1.2" xmlns="http://www.w3.org/2000/svg" viewBox="0 0 1280 806" width="1280" height="806"><defs><clipPath clipPathUnits="userSpaceOnUse" id="cp1"><path d="m2.49 3.08h1280v800h-1280z"/></clipPath></defs><style>.a{fill:#fff}.b{fill:#ffeaf6}.c{fill:#fd9ecc}.d{fill:#aacef2}.e{fill:#272e56}.f{fill:#ffd5c0}.g{fill:#404884}.h{fill:#353b6e}.i{fill:#afafaf}.j{fill:#ddd}.k{fill:#423565}.l{fill:#ac7dfd}.m{fill:#485194}.n{fill:#878f8c}.o{fill:#d9c7ff}.p{opacity:.5;fill:#ad3a12}</style><g clip-path="url(#cp1)"><path class="a" d="m2.5 3.1h1280v800h-1280z"/><path class="a" d="m2.5 3.1h1280v800h-1280z"/><path class="b" d="m-453.5 380.3c330.3-110.7 319-83 382.1-123.7 148.4-95.5-175.8-280.8 11.7-435.3 37.3-30.7 522.4-111.7 595.1-62 82.1 56.2-62.8 313.9 51 437.1 81.8 88.5 194.1 14.5 269.3 102.3 84.4 98.8 29.8 344.8-112.4 441.1-103.4 70.1-187.6 16.9-379.3 56.3-197.3 40.5-218.9 137.6-359.5 165.7-185.1 36.9-216-129.6-480.4-154.5-154.1-14.5-233.7 26.3-280.9-30.9-49.8-60.3-22.2-179 30.9-252.9 42.8-59.6 98.6-85 272.4-143.2z"/><path class="c" d="m222 486.4c4.8-45.7-26.7-83.9-48.6-110.6-22-26.7-24.5-88.3-13.2-121.7 11.4-33.4-16.6-99.9-16.6-99.9 49.3 3.3 29.2 33.9 64.1 47.4 34.9 13.5 43.9 56.9 45.6 99 1.8 42-6.2 43.5 40.7 109.2 46.8 65.6-13.9 146.4-13.9 146.4-19.9 0.1-62.9-24.1-58.1-69.8z"/><path class="a" d="m272.9 577.2c4.8-18.7 6.6-38.1 5.2-57.4-0.7-9.6-2.4-19.1-4.9-28.4l-1-3.5c-0.3-1.2-0.7-2.3-1.1-3.4l-1.1-3.4-0.6-1.7c-0.2-0.6-0.4-1.1-0.7-1.7l-2.7-6.7q-1.4-3.3-3.2-6.4c-1.2-2-2.5-4-3.8-6.1q-2-3-3.9-6.1c-2.5-4.1-5-8.3-7.4-12.5q-7.3-12.5-14.6-25.1c-4.8-8.4-9.5-16.8-14.1-25.4q-6.8-12.8-12.4-26.3l-1.3-3.4c-0.4-1.2-0.8-2.3-1.2-3.5-0.4-1.1-0.8-2.3-1.2-3.4l-1-3.5-0.5-1.8-0.4-1.8-0.9-3.5c-0.3-1.2-0.5-2.4-0.7-3.6-0.2-1.2-0.5-2.4-0.6-3.6-1.6-9.7-1.9-19.5-0.7-29.2q1-7.3 3.1-14.3c1.4-4.7 3-9.3 4.2-13.9q1-3.4 1.6-7 0.5-3.5 0.6-7 0-3.6-0.5-7.1-0.6-3.6-1.5-7c-2.4-9.3-7-17.8-12-26-5-8.2-10.4-16.3-15.8-24.3-5.4-8-10.8-16-16.3-24-5.5-8-11.1-15.8-16.8-23.6q8.8 11.5 17.3 23.3c5.6 7.8 11.2 15.8 16.7 23.7q4.1 6 8.2 12c2.7 4 5.4 8 7.9 12.2q3.9 6.2 7.2 12.6c2.2 4.4 4 9 5.3 13.7q1 3.5 1.6 7.2 0.5 3.6 0.6 7.3 0 3.7-0.6 7.4-0.6 3.6-1.6 7.2c-1.2 4.7-2.8 9.2-4.1 13.9q-2.1 6.9-3 14c-1.1 9.5-0.9 19.1 0.7 28.5 1.6 9.5 4.3 18.8 7.9 27.6q5.4 13.4 12.2 26.2c4.5 8.5 9.2 17 13.9 25.4q7.2 12.5 14.5 25.1 3.6 6.3 7.4 12.4 1.8 3.1 3.7 6.2c1.3 2.1 2.6 4.1 3.8 6.2q1.8 3.2 3.3 6.6l2.6 6.8c0.2 0.6 0.5 1.1 0.7 1.7l0.5 1.7 1.2 3.5c0.3 1.2 0.8 2.3 1.1 3.5l0.9 3.5c2.5 9.4 4 19 4.6 28.7 0.6 9.7 0.3 19.4-0.8 29l-0.4 3.6c-0.2 1.2-0.4 2.4-0.5 3.6-0.4 2.4-0.8 4.8-1.3 7.2q-1.4 7.1-3.3 14.1z"/><path class="d" d="m245.8 613.4c-74.7-15.8-92.3-92.7-129-120.9-36.7-28.3-55.7-65.9-62.5-123.7-6.7-57.8-86-113.3-86-113.3 0 0 47.4 5.4 74.8 18 27.4 12.7 25.8 26.5 61.3 43.2 35.5 16.7 55.1 51.4 67.7 110.4 12.6 59 59.2 80.3 127.6 121.7 68.5 41.4 58.7 111.4 58.7 111.4 0 0-37.9-31-112.6-46.8z"/><path class="a" d="m360.5 670.1c-3.3-12.1-7.9-23.8-13.8-34.8-5.9-11.1-13.3-21.2-22-30.2-2.3-2.1-4.5-4.4-6.8-6.4-2.4-2.1-4.8-4-7.3-5.9q-7.6-5.5-15.7-10.1l-32.4-18.9c-10.8-6.4-21.6-12.7-32.3-19.2q-8.1-4.9-16-9.9c-5.3-3.3-10.6-6.7-15.6-10.4-10.1-7.6-19.4-16.1-27.7-25.5-1.1-1.1-2.1-2.4-3.1-3.6l-3-3.6-2.9-3.7c-1-1.2-2-2.4-2.9-3.7-1.8-2.6-3.7-5.1-5.4-7.7-0.9-1.3-1.8-2.6-2.6-3.9l-2.5-4c-6.7-10.7-12.6-21.8-18.2-33-5.6-11.2-11.2-22.4-15.7-34.1-2.3-5.9-4.2-11.9-5.9-17.9-1.7-6.1-3.1-12.2-4.9-18.1-3.7-11.9-9.2-23.2-16.3-33.4-7.1-10.3-15.5-19.6-24.9-27.8-9.5-8.2-19.7-15.4-30.5-21.7l-4-2.3-4.2-2.2-4.1-2.2c-1.4-0.7-2.8-1.5-4.2-2.1l-8.5-4-2.1-1-2.2-1-4.3-1.7-4.3-1.8q-1.1-0.5-2.2-0.9l-2.2-0.8-8.8-3.3c-2.9-1.1-5.9-2-8.9-3l-8.9-2.9 9 2.8c3 1 6 1.8 8.9 2.9l8.8 3.2 2.2 0.8q1.1 0.4 2.2 0.9l4.4 1.7 4.3 1.8 2.2 0.9 2.1 1 8.6 3.9c1.4 0.6 2.8 1.4 4.2 2.1l4.2 2.2 4.1 2.1 4.1 2.3c10.9 6.2 21.2 13.4 30.8 21.5 9.5 8.2 18 17.6 25.2 27.9 7.3 10.3 12.9 21.6 16.6 33.7 1.8 6 3.2 12.1 5 18.1 1.7 6 3.6 11.9 5.8 17.7 4.5 11.7 10.2 22.8 15.8 34 5.5 11.2 11.4 22.3 18.1 32.8l2.5 4c0.8 1.3 1.7 2.6 2.6 3.9 1.7 2.6 3.5 5.1 5.4 7.7 0.9 1.2 1.8 2.5 2.8 3.7l2.9 3.7 3 3.6c1 1.1 2 2.4 3 3.5 8.3 9.3 17.5 17.8 27.4 25.3 5 3.7 10.3 7.1 15.6 10.5q7.9 5 15.9 9.9 16 9.7 32.2 19.2l32.3 19.1q8.2 4.8 15.8 10.3 3.8 2.9 7.3 6c2.3 2.1 4.5 4.4 6.8 6.6 8.6 9 16 19.3 21.8 30.4 5.8 11.1 10.3 22.8 13.4 35z"/><path class="c" d="m217.7 626.6c-13-24.9-43.6-49-90.7-48.7-47.1 0.3-72.7-31.4-86-58.8-13.2-27.5-50.4-61.3-50.4-61.3q0 0 1.4 0.3l0.6 0.1c4.4 0.8 16.5 2.7 37.2 3.7 26.8 1.2 43.7 30.2 67.6 32.2 23.9 2 43.6 9.1 64 22.7 20.4 13.6 35.7 20 77 18.3 41.4-1.7 85.7 68.9 85.7 68.9 0 2.4-0.2 4.7-0.4 7q0 0.1 0 0.2c-7.2 63.5-93 40.2-106 15.4z"/><path class="a" d="m323.6 611.1q-17.4-3.5-34.5-8.5c-15.6-4.7-30.9-10.5-45.8-17.4-7.4-3.5-14.7-7.2-21.8-11.2-7.2-3.9-14.3-7.8-21.7-11.2q-11.1-5.2-22.6-9.3-11.5-4.2-23.3-7.2-6-1.4-12-2.4c-4-0.7-8.1-1.3-12.1-2.3q-5.9-1.5-11.7-3.9c-1.9-0.7-3.8-1.5-5.6-2.3l-5.6-2.7c-7.4-3.6-14.4-7.8-21-12.7-6.6-4.9-12.8-10.2-19.2-15.3-12.7-10.2-26.1-19.5-40.1-28q-16.8-10.1-34.6-18.6l0.6 0.1q17.6 8.1 34.4 18c14.1 8.3 27.6 17.6 40.4 27.7l9.6 7.6 4.8 3.8c1.6 1.2 3.2 2.5 4.9 3.7 6.5 4.8 13.5 9 20.8 12.5l5.5 2.6c1.9 0.8 3.7 1.6 5.6 2.4q5.7 2.2 11.6 3.7c3.9 1 7.9 1.6 12 2.3 4 0.7 8.1 1.4 12.1 2.4q11.9 3 23.4 7.3c7.7 2.7 15.3 5.8 22.7 9.3 7.4 3.6 14.6 7.5 21.7 11.4 7.2 3.9 14.4 7.8 21.7 11.3q22.2 10.5 45.6 17.7 16.9 5.3 34.2 9 0 0.1 0 0.2z"/><path class="e" d="m532 437.5l43.8 9c-0.4 26.1-48.4 71.2-48.4 71.2-9.2-27.3 4.6-80.2 4.6-80.2z"/><path class="f" d="m578.3 461.1c8.6 13.8 43.6 71 65 89.6 21.3 18.7 60.3 25.1 48 60.4-12.3 35.3-55.3-20-66.6-29.9-11.3-9.8-89.2-51.3-108.2-91.4-7.7-16.2-7.3-24.7-8.7-38-4-36.4 17.4-63.3 42.1-39.1 0.3 0.4 19.9 34.6 28.4 48.4z"/><path class="g" d="m514.3 307.7c0 0 13.9-5.7 26.5 35.3 12.6 40.9 35.3 104 35.3 104 0 0-46 25.6-48.7 70.8 0 0-45.8-69.6-57.2-99.2-11.3-29.6-17-119.7 44.1-110.9z"/><path class="h" d="m272.3 296.7c1.8-7.2 6.7-13.1 14-14.7 36.3-8.2 112.9-41.5 157.8-16.5 37.9 21.1 74.8 40.7 82.6 47.3 1.6 1.4 2.2 3.7 1.3 5.7-36.9 86.5-91.4 263.5-91.4 263.5-25.2-0.7-214.1 21.4-214.1 21.4-15.5-54 7.6-144.8 49.8-306.7z"/><path class="g" d="m1010.6 605.5v25.4l-762.8 168.1-163.6-167.4v-26.5l60.2 15 702.5-133.8 134.1 118.1z"/><path class="d" d="m247 773.3l-163.7-167.4 762.8-145.3 164.4 144.9z"/><path class="i" d="m453 679.7c-3.5 0.7-7.2-0.4-9.8-3l-46-46.3 35.8-7.8c9.7 3.2 18.7 8.2 26.5 14.8q10.6 9.6 19.5 21c1 1.3 1.7 2.8 2.1 4.4 1.2 5.7-2.5 11.4-8.2 12.6z"/><path class="j" d="m465.5 676.2c-0.3 0-0.7-0.3-0.8-0.6 0-0.2-5.3-15.7-15.3-23.9-0.3-0.3-0.4-0.9-0.1-1.2 0.3-0.4 0.9-0.4 1.2-0.1 10.4 8.4 15.6 24 15.9 24.6 0.1 0.5-0.1 1-0.6 1.1q-0.1 0-0.3 0z"/><path class="e" d="m209.3 495.5c0 0 67.7-76.8 93.1-5.4 0 0-56.6 22.6-93.1 5.4z"/><path class="f" d="m282.5 439.8c0 0 2.8 30.6 12.8 43.5 9.9 12.8 88.8 102.3 112 118.7 23.1 16.4 62.6 18.8 54 55.1-8.7 36.4-57-14.3-69.4-22.9-12.3-8.6-134.2-73.6-157.2-111.5-9.3-15.4-7.8-28.4-10.6-41.4-7.6-35.9 30.3-63.8 57.4-42.3z"/><path class="g" d="m313.5 289.3c10.8 8.4 14.1 21.4 16.5 34.6 3.7 19.8 2.7 48.6-27.6 166.2 0 0-67.6-8.2-93.1 5.4 0 0 7.6-92.1 34-151.1 8.4-18.8 15.3-38.8 29.1-54.6 2.7-3 8.4-6.9 14.8-6.9 12 0.1 23.1 3.8 26.3 6.4z"/><path class="k" d="m479.1 171.9c-9.2 7.7-18.6 15.2-27.9 22.8l-24.3 21c2.9-12.3-27.8-15.3-30.2-54-2.4-38.8 30.3-36.7 45.3-43.9 15-7.1 31.8-9 44.5-3 5 2.2 8.9 6.3 10.8 11.4 1.9 5 3.1 11.6 2.5 16.8-0.4 3.7-2.2 7.2-4 10.4-1.7 3.1-3.3 6.4-5.6 9.1l-0.4 0.4c-3.1 3.4-7.1 6-10.7 9z"/><path class="f" d="m491 156.1c0 0 24 74.2-20.8 70.1-27.8-2.6-37.9-23.6-37.9-23.6 0 0-9.7 3.1-10.9-16.7-0.7-11.7 14-18.1 14.7 0.4 0 0 10.5 3.2 12.6-12.5 2-15.7 10.2-15 19.1-12.3 8.9 2.7 21.8-0.7 23.2-5.4z"/><path class="f" d="m465.7 221.9c0 0-13.1 40-13.8 42.7-0.7 2.7 7.4 9.1 7.4 9.1 0 0 19.8 30.1-12.4 33.5-57.8 6.1-72.2-50-62.8-49.9 9.4 0.2 24.2-6.1 24.2-6.1 9.8-14.5 20.8-51 20.8-51 37-13.8 36.6 21.7 36.6 21.7z"/><path class="l" d="m704.8 553.2c1.8 1.6 3.1 3.8 3.6 6.2 1.4 6.2-2.6 12.3-8.8 13.7l-231.4 50.8c-3.9 0.8-7.9-0.4-10.7-3.2l-36.2-37c-1.6-1.7-2.7-3.7-3.1-5.9-1.2-6.3 2.9-12.3 9.2-13.5l232.9-44.4c3.5-0.6 7.1 0.4 9.8 2.7z"/><path class="g" d="m723.3 627c0.7 0.6 1.2 1.5 1.4 2.4 0.6 2.5-1 4.9-3.5 5.5l-83 18.2c-1.5 0.4-3.1-0.1-4.2-1.3l-12.5-12.7c-0.6-0.7-1-1.5-1.2-2.3-0.5-2.5 1.2-4.9 3.6-5.4l83.7-15.9c1.4-0.3 2.8 0.1 3.9 1z"/><path class="j" d="m776.2 570l-210.5 46.3c-12.6 2.7-25-5.3-27.8-17.9-0.6-2.9-0.7-6-0.2-9l36.9-207.8c1.7-9.3 8.8-16.7 18-18.7l210.5-46.3c12.6-2.8 25.1 5.2 27.8 17.8 0.7 3 0.7 6.1 0.2 9.1l-36.9 207.8c-1.6 9.3-8.7 16.7-18 18.7z"/><path class="i" d="m716.5 554.5l-1.8-1.1-17.7 69.6c0 0-31.2 13.7-46.5 17.1l-7.8-5.2 21.1-82.3 54.2-11.9 7.7 5.4z"/><path class="j" d="m704.7 628.5l-54.2 11.9 21-82.3 54.2-11.9z"/><path class="h" d="m365 691.9c-0.4 11.3-24.8 20.3-54.5 20.2-29.7-0.2-53.4-9.4-53-20.7 0.4-11.3 24.8-20.3 54.5-20.2 29.7 0.2 53.5 9.4 53 20.7z"/><path class="m" d="m292.8 676.2c0.5 1.9-0.6 3.8-2.5 4.3-4.1 1.4-8.1-0.3-12-1.9q-5.7-2.3-10.9-5.6c-7.1-4.6-14-10.8-15.5-19-1.5-8.5 2.5-18.6 14.5-19.3 4.6-0.2 10 1 13.2 4.3 3.4 3.5 6.8 18.6-2.7 13.3-2.7-1.5-4.4-4.8-7-6-5.1-2.4-9.5 2.3-8.6 6.9 1.1 5.4 10.2 10.7 14.9 13.3q4.1 2.3 8.4 4 2 0.8 4 1.6 1.2 0.5 2.2 1.3 0.5 0.5 0.8 1 0.9 0.7 1.2 1.8z"/><path class="m" d="m309.2 703c-27.8 0-33.8-11.7-33.8-11.7l-0.9-69.2c0-3.5 2.2-6.4 4.9-8.5 6-4.8 14.5-5.7 21.8-6.4q10.4-1.1 20.7 0c7.3 0.7 15.8 1.6 21.8 6.4 2.6 2.1 4.7 5.2 4.7 8.5l0.3 11.5-0.8 57.7c0 0-9.2 11.7-38.7 11.7z"/><path class="l" d="m309 637.1c25.3 0 36.3-7.4 39.5-10.1l0.2 6.6v2.5c-3 2.6-14 10.2-39.6 10.2-22.9 0-31.7-6.8-34.4-9.7l-0.1-9.4c2.6 2.9 11.3 9.9 34.4 9.9z"/><path class="l" d="m309.1 693.8c-21.4 0-30.5-6-33.8-9.1l-0.1-9.4c3.2 3.2 12.2 9.3 33.9 9.3 24.2 0 35.3-6.8 39-9.7l-0.1 9.3c-3.8 3-15 9.6-38.9 9.6z"/><path class="l" d="m275 660.2l-0.1-9.4c2.9 3 11.8 9.6 34.2 9.6 25.1 0 36.1-7.3 39.4-10l-0.2 9.3c-3.4 2.9-14.5 10-39.2 10-22.1 0-31.1-6.4-34.1-9.5z"/><path class="a" d="m346.5 621.7c-0.3 0.3-0.9-0.1-1.4-0.6q-0.5 0.7-1.1 1.2c-2.6 2-6.8 3.4-10.9 4.6q-2.3 0.7-4.7 1.1 0 0 0.1-0.1-5.9 1.1-11.9 1.3c-10.2 0.4-21.9-0.7-30.6-3.7-3.5-1.2-6.7-2.8-7.7-4.9-0.4 0.3-0.7 0.6-0.7 0.5-0.6-0.8-5.8-12 35.2-12 41 0 33.7 12.6 33.7 12.6z"/><path class="n" d="m344.3 617.1c2.3 1.8 3 3.9 0.4 6.2-2.6 2.2-6.9 3.8-11 5.1q-2.3 0.7-4.8 1.2 0.1-0.2 0.3-0.3c5.1-2.3 13.4-4.1 15.4-8.4 0.5-1.2 0.4-2.6-0.3-3.8z"/><path fill-rule="evenodd" class="m" d="m347.5 619.7c0 7.7-16.2 12.3-36 12.3-19.9 0-36-5-36-12.3 0-6.2 16.1-11.3 36-11.3 19.9 0 36 5.1 36 11.3zm-3-0.7c0-5.4-14.8-9.7-33-9.7-18.2 0-32.9 4.4-32.9 9.7 0 5.3 14.7 9.7 32.9 9.7 18.2 0 33-4.4 33-9.7z"/><g style="opacity:.5"><path class="n" d="m304 568c3.2 1.9 6.7 4.4 6.3 7.7-0.2 2-1.8 3.6-2.8 5.4-1.5 2.5-2.3 5.4-2.4 8.3-0.1 1.2-0.3 3.4 0.4 4.5-3-4.4-3-10.2 0-14.6 5.2-7.6-6-13.9-6-13.9q2.3 1.2 4.5 2.6z"/><path class="n" d="m313.8 572.3c1.6 1.1 3.3 2.6 2.9 4.4q-0.7 1.6-1.9 2.8c-1 1.2-1.7 2.8-1.9 4.3-0.3 0.8-0.3 1.7-0.1 2.5-1.7-2.4-1.5-5.6 0.4-7.8 3.3-3.9-1.6-7.8-1.6-7.8q1.2 0.7 2.2 1.6z"/><path class="n" d="m307.8 595.4c1.2 0.8 2.5 2 2.2 3.4q-0.6 1.2-1.5 2.1c-0.7 0.9-1.2 2.1-1.5 3.3-0.1 0.6-0.2 1.3 0 1.9-1.3-1.8-1.2-4.3 0.3-6 2.5-3-1.2-6-1.2-6q0.9 0.5 1.7 1.3z"/><path class="n" d="m312.2 593.8c3.5 5.8-3 8.1-3 8.1 0 0 4.1-3.1 0.5-8.3-3.8-5.5 1.1-14.5 1.1-14.5 0 0-3 7.5 1.4 14.7z"/></g><path class="h" d="m878.2 484.2c32 0 57.9 2.1 57.9 4.8 0 2.7-25.9 4.8-57.9 4.8-32 0-57.9-2.1-57.9-4.8 0-2.7 25.9-4.8 57.9-4.8z"/><path class="g" d="m904 589.5c-1 1.4-2.5 2.4-4.1 2.9-4.4 1.3-13.5 3.7-21.7 3.4-8.1 0.3-17.2-2.1-21.6-3.4-1.7-0.5-3.2-1.5-4.2-2.9-38.1-52.1-31.7-93.5-31.7-93.5l57.5 3.8 57.5-3.8c0 0 6.5 41.4-31.7 93.5z"/><path class="l" d="m815 345.3c5.8 17.3 19 33.3 29.5 48 14 19.8 25.1 40.6 28.1 64.9 0.5 4.1 2.1 46.1-4.5 45.4l-24.8-2.8c6-21.1 7.6-42.4 1.7-63.7-5.2-18.9-18.1-33.4-24.5-51.7-2.9-8.1-4.3-17.2-5.1-25.7-0.5-4.8 0.5-11.1-0.8-15.7q0.1 0.6 0.4 1.3z"/><path class="l" d="m755.1 428.4c10.7 7.2 24.9 10.5 37.2 14.4 16.3 5.1 31.4 12.1 43.6 24.5 2 2 20.9 25 16.9 27.4l-15.2 9c-5.7-14.4-13.9-27.1-26.3-36.5-11-8.5-24.5-11.1-36-18.6-5-3.6-9.7-7.7-13.8-12.3-2.4-2.5-4.5-6.5-7.2-8.5q0.4 0.3 0.8 0.6z"/><path class="l" d="m1002.8 450.9c-3 1.4-5.9 5-8.7 7-4.9 3.7-10.3 6.9-16 9.4-12.6 5.2-26.4 5.2-38.8 11.3-14 7-24.5 17.8-32.8 30.9l-13.2-11.8c-3.4-3.2 19.5-22.1 21.9-23.7 14.3-9.9 30.5-13.8 47.5-15.7 12.7-1.4 27.3-2 39.2-7q0.4-0.2 0.9-0.4z"/><path class="l" d="m941.1 343.9c-1.3 4.6-0.3 11-0.7 15.7-0.9 8.6-2.3 17.6-5.1 25.8-6.4 18.3-19.3 32.8-24.5 51.7-5.8 21.3-4.1 42.6 1.9 63.7l-24.8 2.8c-6.6 0.8-5.1-41.2-4.6-45.3 3-24.4 14-45.2 28-65 10.4-14.8 23.6-30.8 29.4-48.1q0.3-0.6 0.4-1.3z"/><path class="l" d="m800.5 392.5c0 0 21.1 31.1 49.6 53 28.5 21.9 11.4 54 11.4 54h-19.7c0 0 5.9-19.7-6.3-36.1-12.2-16.3-32.9-40.6-35-70.9z"/><path class="l" d="m880.7 343.9c-1 1.3-1.2 4.8-1.5 6.4-1.1 5.4-1.6 10.9-1.6 16.5 0 12 5.1 23.2 8.4 34.6 4.7 16.3 9.5 33.4 9.7 50.5 0.1 8.1-0.7 16.1-2.3 24-0.6 2.6-5 23.2-7.6 23.3-6.9 0.3-14.1 1.4-20.9 0.9-0.1-3.3 3-8.1 4-11.5 6.5-19.9 2.3-37-1.5-56.9-2.9-15.9-3.2-32.1-0.9-48 1.9-13.8 5-28.8 14.2-39.8z"/><path class="l" d="m968.9 398.7c-2 3.1-2.9 8-4.3 11.4-2.6 6.4-5.9 12.3-9.9 17.9-9.1 12-22.1 19.7-30.4 32.5-9.4 14.4-13.2 30.6-13.8 47.6l-19-3.8c-5-1 6-31.8 7.4-34.7 8-17.3 21.1-30.1 36.1-41.4 11.3-8.5 24.8-17.2 33.3-28.6q0.3-0.5 0.6-0.9z"/><path class="o" d="m945.6 509.6h-0.1c0 5-30.1 9.1-67.3 9.1-37.2 0-67.3-4.1-67.3-9.1q0-0.2 0-0.3c1.1-11.2 9.4-20.3 9.4-20.3 0 2.7 25.9 4.8 57.9 4.8 32 0 57.9-2.1 57.9-4.8h0.1c0 0 8.3 9.2 9.4 20.6z"/><path class="p" d="m821.7 493.1q-0.7-0.1-1.3-0.6c-1-0.9-1-2.5-0.1-3.5 0 2.7 25.9 4.8 57.9 4.8 32 0 57.9-2.1 57.9-4.8h0.1q0.3 0.4 0.4 0.9 0.1 0.1 0.1 0.1c0.2 1.1-0.5 2.1-1.6 2.3-9.3 2-29.9 4.1-56.7 4.1-23.1 0-44.1-1.1-56.7-3.3z"/><path class="b" d="m1584.3 779.7c-138.8 40.8-133.7 29.5-160.5 45.3-63 37.2 69 118.1-11.1 178.9-16 12.1-218.6 38.4-248.1 16.9-33.2-24.3 30.6-128.2-14.9-180.6-32.7-37.6-80.4-8.7-110.3-46-33.7-41.8-7.5-142.2 53-179.8 43.9-27.3 78.1-4.2 158.3-17.6 82.6-13.8 92.9-53.5 151.7-63 77.5-12.5 87.9 56.5 197.4 70.5 63.7 8.2 97.4-7.4 116.2 16.8 19.8 25.5 6.7 74-16.5 103.6-18.6 24-42.2 33.6-115.2 55z"/></g></svg>